<svg id="shield-user-line" xmlns="http://www.w3.org/2000/svg" width="20" height="20" viewBox="0 0 20 20">
  <path id="Path_17" data-name="Path 17" d="M0,0H20V20H0Z" fill="none"/>
  <path id="Path_18" data-name="Path 18" d="M3.609,2.494,10,1l6.391,1.494a.81.81,0,0,1,.609.8v8.171a4.982,4.982,0,0,1-2.078,4.084L10,19,5.078,15.548A4.982,4.982,0,0,1,3,11.465V3.293a.81.81,0,0,1,.609-.8Zm.947,1.455v7.515a3.321,3.321,0,0,0,1.385,2.723L10,17.034l4.059-2.847a3.321,3.321,0,0,0,1.385-2.722V3.949L10,2.677ZM10,9.182A2,2,0,0,1,8.056,7.136,2,2,0,0,1,10,5.091a2,2,0,0,1,1.944,2.045A2,2,0,0,1,10,9.182ZM6.521,13.273A3.57,3.57,0,0,1,10,9.994a3.57,3.57,0,0,1,3.479,3.279Z" transform="translate(0)" fill="#fff"/>
</svg>
